<svg xmlns="http://www.w3.org/2000/svg" xml:space="preserve" width="672.2514" height="184.36098" viewBox="0 0 672.2514 184.36098"><defs><clipPath id="a" clipPathUnits="userSpaceOnUse"><path d="M0 204h595.276V0H0Z"/></clipPath></defs><g clip-path="url(#a)" style="stroke-width:.801766" transform="matrix(1.663 0 0 -1.663 -175.027 248.47)"><g style="stroke-width:.801766"><path d="M0 0h-78.602a2.734 2.734 0 0 1-2.733-2.733v-73.845a2.734 2.734 0 0 1 2.733-2.733H0a2.733 2.733 0 0 1 2.732 2.733v73.845A2.733 2.733 0 0 1 0 0" style="fill:#1d1d1b;fill-opacity:1;fill-rule:nonzero;stroke:none;stroke-width:.801766" transform="translate(186.583 149.411)"/></g><g style="stroke-width:.801766"><path d="M0 0h-28.697l23.105-57.469H0Z" style="fill:#f9b000;fill-opacity:1;fill-rule:nonzero;stroke:none;stroke-width:.801766" transform="translate(178.397 138.49)"/></g><g style="stroke-width:.801766"><path d="M0 0h-3.524v-16l-9.474 14.829C-13.713-.083-14.571.007-15.462.007h-3.788v-25.015h5.467V-8.35l10.526-16.658h5.2v23.066C1.943-.69 1.252 0 0 0" style="fill:#fff;fill-opacity:1;fill-rule:nonzero;stroke:none;stroke-width:.801766" transform="translate(135.42 106.03)"/></g><g style="stroke-width:.801766"><path d="M0 0h-6.829l3.414 9.58zm.818 12.043c-.734 1.814-2.136 2.853-3.851 2.853h-.764c-1.714 0-3.116-1.039-3.848-2.849l-8.684-22.17h5.738l2.195 5.887h9.963l2.195-5.887H9.5Z" style="fill:#fff;fill-opacity:1;fill-rule:nonzero;stroke:none;stroke-width:.801766" transform="translate(156.957 91.144)"/></g><g style="stroke-width:.801766"><path d="M0 0h-3.524v-25.008h5.466v23.066C1.942-.689 1.252 0 0 0" style="fill:#fff;fill-opacity:1;fill-rule:nonzero;stroke:none;stroke-width:.801766" transform="translate(143.03 138.488)"/></g><g style="stroke-width:.801766"><path d="m0 0 .003 18.832c0 1.252-.69 1.942-1.942 1.942h-3.525V-.896a3.343 3.343 0 0 1 3.339-3.34h15.357V0Z" style="fill:#fff;fill-opacity:1;fill-rule:nonzero;stroke:none;stroke-width:.801766" transform="translate(121.633 117.716)"/></g><g style="stroke-width:.801766"><path d="M0 0v55.292c0 1.64-.698 2.125-2.364 2.125h-5.547V0Z" style="fill:#1d1d1b;fill-opacity:1;fill-rule:nonzero;stroke:none;stroke-width:.801766" transform="translate(333.432 81.073)"/></g><g style="stroke-width:.801766"><path d="M0 0v35.606h8.633v6.358H0v13.328c0 1.64-.699 2.125-2.361 2.125h-5.548V27.955c-2.834-.6-6.807-.961-10.674-.961H-33.33c-.758 0-1.265.496-1.265 1.239v27.605h-7.843V26.031c0-3.025 2.521-5.395 5.741-5.395h18.114c3.49 0 7.08.482 10.674 1.403V0Z" style="fill:#1d1d1b;fill-opacity:1;fill-rule:nonzero;stroke:none;stroke-width:.801766" transform="translate(387.033 81.073)"/></g><g style="stroke-width:.801766"><path d="M0 0c0-5.981-3.853-10.158-9.368-10.158-5.51 0-9.36 4.177-9.36 10.158 0 8.216 6.66 13.662 9.36 13.662C-6.662 13.662 0 8.216 0 0m-9.373 19.959c-6.052 0-17.621-7.766-17.621-19.941 0-9.698 7.247-16.473 17.621-16.473C1.004-16.455 8.252-9.68 8.252.018c0 12.175-11.572 19.941-17.625 19.941" style="fill:#1d1d1b;fill-opacity:1;fill-rule:nonzero;stroke:none;stroke-width:.801766" transform="translate(310.507 117.5)"/></g><g style="stroke-width:.801766"><path d="M0 0c3.199 0 9.525-2.842 9.525-8.359 0-4.032-3.827-6.742-9.525-6.742-5.696 0-9.53 2.71-9.53 6.742C-9.53-2.842-3.114 0 0 0m.01 6.155c-5.648 0-17.754-5.026-17.754-14.764 0-7.563 7.134-12.646 17.754-12.646s17.758 5.083 17.758 12.646C17.768 1.129 5.631 6.155.01 6.155" style="fill:#1d1d1b;fill-opacity:1;fill-rule:nonzero;stroke:none;stroke-width:.801766" transform="translate(491.065 100.317)"/></g><g style="stroke-width:.801766"><path d="M0 0v35.606h8.63v6.358H0l-.004 13.328c0 1.64-.698 2.125-2.363 2.125h-5.548V24.752c-2.812-.448-6.405-.713-9.662-.713H-35.71c-.754 0-1.195.494-1.195 1.232v8.279h19.81v22.288h-27.722v-6.361h19.81v-9.566h-19.81V23.069c0-3.025 2.521-5.392 5.739-5.392h20.71c3.532 0 7.411.408 10.453 1.084V0h.002z" style="fill:#1d1d1b;fill-opacity:1;fill-rule:nonzero;stroke:none;stroke-width:.801766" transform="translate(269.03 81.073)"/></g><g style="stroke-width:.801766"><path d="M0 0h-7.233H.028Z" style="fill:#1d1d1b;fill-opacity:1;fill-rule:nonzero;stroke:none;stroke-width:.801766" transform="translate(452.428 108.498)"/></g><g style="stroke-width:.801766"><path d="M0 0c3.197 0 9.523-2.842 9.523-8.359 0-4.032-3.829-6.742-9.523-6.742-5.699 0-9.53 2.71-9.53 6.742C-9.53-2.842-3.117 0 0 0m.008 6.155c-5.65 0-17.756-5.026-17.756-14.764 0-7.563 7.137-12.646 17.756-12.646 10.621 0 17.757 5.083 17.757 12.646C17.765 1.129 5.628 6.155.008 6.155" style="fill:#1d1d1b;fill-opacity:1;fill-rule:nonzero;stroke:none;stroke-width:.801766" transform="translate(433.717 100.317)"/></g><path d="M491.575 127.031h10.082v-6.216h-10.082zm-7.843-11.219h-12.308c-.756 0-1.261.496-1.261 1.239v14.02h13.569zm23.419 22.678h-5.495v-5.098h-10.081v4.043h-29.26v-22.582c0-3.027 2.521-5.397 5.734-5.397h23.526v4.997h10.081v-5.956h7.833v27.888c0 1.622-.691 2.105-2.338 2.105" style="fill:#1d1d1b;fill-opacity:1;fill-rule:nonzero;stroke:none;stroke-width:.801766"/><g style="stroke-width:.801766"><path d="M0 0h-5.494v-11.183h-5.485v9.079c0 1.622-.693 2.104-2.34 2.104h-5.493v-29.992h7.833v12.443h5.485v-12.443h7.832v27.888C2.338-.482 1.646 0 0 0" style="fill:#1d1d1b;fill-opacity:1;fill-rule:nonzero;stroke:none;stroke-width:.801766" transform="translate(450.688 138.494)"/></g><g style="stroke-width:.801766"><path d="M0 0c.722 0 .966-.522 1.185-1.409l5.578-21.736h8.123L8.984-.727C7.742 4.054 5.294 6.369.028 6.369h-.054c-5.264 0-7.713-2.315-8.956-7.096l-5.901-22.418h8.124l5.578 21.736C-.964-.522-.72 0 0 0" style="fill:#1d1d1b;fill-opacity:1;fill-rule:nonzero;stroke:none;stroke-width:.801766" transform="translate(416.204 131.642)"/></g><g style="stroke-width:.801766"><path d="m0 0 .701.16c.652.164.908.306 1.562 2.102l4.735 13.176h1.4l4.967-13.433c.607-1.563.91-1.681 1.493-1.845l.654-.16v-.724H9.657V0l.653.16c.629.164.816.306.816.679 0 .348-.164.768-.373 1.374l-.909 2.498H4.433l-.841-2.498c-.21-.629-.303-.932-.303-1.259 0-.488.281-.676.839-.794L4.922 0v-.724H0Zm4.782 5.759H9.47l-2.332 6.58h-.117Z" style="fill:#1d1d1b;fill-opacity:1;fill-rule:nonzero;stroke:none;stroke-width:.801766" transform="translate(267.796 44.546)"/></g><g style="stroke-width:.801766"><path d="M0 0c0 6.226 3.708 8.487 8.141 8.487 1.795 0 3.382-.255 4.406-.557l.211-4.62h-.815c-.444 1.169-.981 2.449-1.518 3.243-.489.723-.955.862-2.564.862-3.359 0-5.155-1.656-5.155-6.973 0-5.692 1.632-7.603 4.828-7.603 2.123 0 2.635.513 3.196 1.329.652 1.003.909 1.587 1.352 2.822h.746l-.233-4.199c-1.072-.512-2.985-1.027-4.991-1.027C3.195-8.236 0-5.856 0 0" style="fill:#1d1d1b;fill-opacity:1;fill-rule:nonzero;stroke:none;stroke-width:.801766" transform="translate(290.096 51.776)"/></g><g style="stroke-width:.801766"><path d="m0 0 .957.257c.467.115.63.304.63 1.212v12.944c0 .936-.163.982-.699 1.238l-1.004.467v.651l3.965.376.233-.189s-.164-1.166-.164-2.727v-2.124c0-1.05-.115-2.052-.115-2.052h.093c1.166.745 2.916 1.468 4.409 1.468 2.355 0 3.171-1.002 3.171-3.1V1.469c0-.908.186-1.097.629-1.212L13.039 0v-.699H7.581V0l.957.257c.466.115.606.233.606 1.212v6.298c0 1.631-.537 2.216-2.03 2.216-1.143 0-2.519-.466-3.196-.723V1.469c0-.979.142-1.097.607-1.212L5.482 0v-.699H0Z" style="fill:#1d1d1b;fill-opacity:1;fill-rule:nonzero;stroke:none;stroke-width:.801766" transform="translate(304.465 44.522)"/></g><g style="stroke-width:.801766"><path d="M0 0v6.858c0 .863-.092.887-.63 1.121l-.956.42v.63l3.569.394.35-.234V.539c0-1.353.605-2.077 2.005-2.077 1.143 0 2.356.49 3.219.863v7.533c0 .863-.069.887-.629 1.121l-.933.42v.63l3.568.394.326-.234v-9.28c0-1.051.14-1.19.701-1.447l.863-.397v-.629l-3.64-.492-.256.189.117 1.398H7.58c-1.235-.814-2.799-1.587-4.432-1.587C1.189-3.056 0-1.98 0 0" style="fill:#1d1d1b;fill-opacity:1;fill-rule:nonzero;stroke:none;stroke-width:.801766" transform="translate(319.697 46.596)"/></g><g style="stroke-width:.801766"><path d="M0 0v14.531c0 .935-.163.981-.675 1.239l-1.005.465v.652l3.943.375.233-.188s-.164-.931-.164-2.727v-2.123c0-1.05-.093-1.959-.093-1.959h.093c1.004.745 2.497 1.375 4.06 1.375 2.261 0 4.687-1.282 4.687-5.714S8.281-.863 4.408-.863C2.612-.863 1.33-.651 0 0m8.631 5.459c0 3.171-1.354 4.712-3.36 4.712-1.609 0-2.378-.466-2.939-.793V.981c.653-.56 1.33-.794 2.334-.794 2.681 0 3.965 1.4 3.965 5.272" style="fill:#1d1d1b;fill-opacity:1;fill-rule:nonzero;stroke:none;stroke-width:.801766" transform="translate(333.203 44.403)"/></g><g style="stroke-width:.801766"><path d="M0 0v14.531c0 .935-.162.981-.676 1.239l-1.003.465v.652l3.943.375.232-.188s-.163-.931-.163-2.727v-2.123c0-1.05-.094-1.959-.094-1.959h.094c1.004.745 2.496 1.375 4.059 1.375 2.261 0 4.687-1.282 4.687-5.714S8.281-.863 4.408-.863C2.613-.863 1.33-.651 0 0m8.631 5.459c0 3.171-1.354 4.712-3.36 4.712-1.609 0-2.378-.466-2.938-.793V.981C2.985.421 3.662.187 4.666.187c2.681 0 3.965 1.4 3.965 5.272" style="fill:#1d1d1b;fill-opacity:1;fill-rule:nonzero;stroke:none;stroke-width:.801766" transform="translate(346.778 44.403)"/></g><g style="stroke-width:.801766"><path d="M0 0c0 6.226 3.708 8.487 8.141 8.487 1.795 0 3.381-.255 4.406-.557l.211-4.62h-.816c-.444 1.169-.979 2.449-1.517 3.243-.489.723-.955.862-2.565.862-3.36 0-5.155-1.656-5.155-6.973 0-5.692 1.632-7.603 4.828-7.603 2.123 0 2.636.513 3.196 1.329.653 1.003.91 1.587 1.352 2.822h.746l-.232-4.199c-1.073-.512-2.987-1.027-4.992-1.027C3.195-8.236 0-5.856 0 0" style="fill:#1d1d1b;fill-opacity:1;fill-rule:nonzero;stroke:none;stroke-width:.801766" transform="translate(365.486 51.776)"/></g><g style="stroke-width:.801766"><path d="M0 0c0 4.082 2.845 6.299 5.9 6.299 3.312 0 5.878-2.029 5.878-6.159 0-4.082-2.845-6.389-5.878-6.389C2.565-6.249 0-4.127 0 0m9.212-.187c0 3.966-1.119 5.504-3.405 5.504-2.099 0-3.242-1.493-3.242-4.99 0-3.966 1.143-5.574 3.428-5.574 2.1 0 3.219 1.562 3.219 5.06" style="fill:#1d1d1b;fill-opacity:1;fill-rule:nonzero;stroke:none;stroke-width:.801766" transform="translate(380.299 49.769)"/></g><g style="stroke-width:.801766"><path d="m0 0 .957.257c.467.115.63.304.63 1.212v7.23c0 .933-.116.981-.7 1.26L0 10.401v.609l3.686.487.232-.184-.116-1.26h.094c1.166.745 2.752 1.468 4.198 1.468 1.703 0 2.403-.56 2.822-1.516h.094c1.282.747 2.706 1.516 4.431 1.516 2.053 0 2.847-1.026 2.847-3.125V1.469c0-.908.186-1.097.605-1.212L19.85 0v-.699h-5.482V0l.956.257c.491.115.63.233.63 1.212v6.273c0 1.563-.396 2.241-1.819 2.241-1.144 0-2.332-.445-3.031-.769V1.469c0-.908.185-1.097.605-1.212L12.666 0v-.699H7.184V0l.957.257c.489.115.63.233.63 1.212v6.273c0 1.542-.397 2.241-1.82 2.241-1.143 0-2.356-.445-3.033-.723V1.469c0-.979.142-1.097.607-1.212L5.482 0v-.699H0Z" style="fill:#1d1d1b;fill-opacity:1;fill-rule:nonzero;stroke:none;stroke-width:.801766" transform="translate(393.454 44.522)"/></g><g style="stroke-width:.801766"><path d="m0 0 .957.257c.489.115.629.303.629 1.212v12.362c0 .933-.116.982-.699 1.26L0 15.533v.609l3.685.487.233-.14-.093-1.211h.093c1.004.745 2.496 1.375 4.036 1.375 2.262 0 4.687-1.281 4.687-5.714 0-4.432-2.658-6.788-6.717-6.788-.606 0-1.446.119-2.075.303 0 0 .069-.7.069-1.493V1.469c0-.979.116-1.118.607-1.212L5.784 0v-.676H0Zm10.193 10.474c0 3.17-1.329 4.711-3.639 4.711-1.305 0-2.123-.537-2.636-.793V6.064c.63-.56 1.283-.862 2.286-.862 2.683 0 3.989 1.399 3.989 5.272" style="fill:#1d1d1b;fill-opacity:1;fill-rule:nonzero;stroke:none;stroke-width:.801766" transform="translate(414.354 39.39)"/></g><g style="stroke-width:.801766"><path d="M0 0c0 1.913 1.376 2.87 4.082 3.5l2.73.605v2.168c0 1.563-.234 2.262-2.217 2.262-1.027 0-1.19-.232-1.282-.931-.117-.885-.35-1.563-1.4-1.563-.934 0-1.236.56-1.236 1.166 0 1.54 2.448 2.239 4.409 2.239 2.798 0 4.057-1.026 4.057-3.033v-6.88c0-.605.164-.977.63-1.211.257-.141.629-.187 1.143-.212v-.653c-.373-.255-1.235-.536-2.053-.536-1.188 0-1.818.584-1.959 1.352h-.117c-.559-.768-1.865-1.374-3.241-1.374C1.376-3.101 0-2.005 0 0m6.812-.676v3.592l-1.797-.188C3.336 2.564 2.379 1.936 2.379.187c0-1.353.817-1.958 2.17-1.958 1.12 0 1.935.511 2.263 1.095" style="fill:#1d1d1b;fill-opacity:1;fill-rule:nonzero;stroke:none;stroke-width:.801766" transform="translate(428.514 46.62)"/></g><g style="stroke-width:.801766"><path d="m0 0 .957.257c.467.115.63.304.63 1.212v7.23c0 .933-.116.981-.699 1.26L0 10.401v.609l3.686.487.232-.14-.116-1.304h.094c1.166.745 2.916 1.468 4.409 1.468 2.355 0 3.171-1.002 3.171-3.1V1.469c0-.908.186-1.097.629-1.212L13.039 0v-.699H7.581V0l.956.257c.467.115.607.233.607 1.212v6.298c0 1.631-.537 2.216-2.03 2.216-1.143 0-2.519-.466-3.196-.723V1.469c0-.979.142-1.097.607-1.212L5.482 0v-.699H0Z" style="fill:#1d1d1b;fill-opacity:1;fill-rule:nonzero;stroke:none;stroke-width:.801766" transform="translate(440.363 44.522)"/></g><g style="stroke-width:.801766"><path d="M0 0c0 .721.419 1.26 1.143 1.26.746 0 1.095-.421 1.259-.957.117-.351.163-.421.372-.421.539 0 1.285.748 1.984 2.449l.56 1.33-3.92 9.541c-.512 1.236-.583 1.35-1.212 1.562l-.56.185v.678h5.318v-.678l-.63-.164c-.536-.139-.676-.278-.676-.699 0-.303.116-.699.349-1.26l2.52-6.25h.094l2.286 6.25c.209.609.28 1.075.28 1.354 0 .396-.233.491-.654.605l-.653.164v.678h4.221v-.678l-.652-.185c-.561-.163-.677-.466-1.191-1.798L6.018 2.377C5.107.092 4.012-1.517 2.006-1.517.56-1.517 0-.771 0 0" style="fill:#1d1d1b;fill-opacity:1;fill-rule:nonzero;stroke:none;stroke-width:.801766" transform="translate(453.824 40.067)"/></g></g></svg>