<svg xmlns="http://www.w3.org/2000/svg" width="64" height="64" viewBox="0 0 64 64" role="img">
    <title>Nova avatar</title>
    <defs>
    <filter id="blur-1" x="-40%" y="-40%" width="180%" height="180%"><feGaussianBlur stdDeviation="1.1"/></filter>
    <filter id="blur-3" x="-55%" y="-55%" width="210%" height="210%"><feGaussianBlur stdDeviation="3.2"/></filter>
    <filter id="blur-5" x="-70%" y="-70%" width="240%" height="240%"><feGaussianBlur stdDeviation="5.1"/></filter>
    <filter id="blur-6" x="-75%" y="-75%" width="250%" height="250%"><feGaussianBlur stdDeviation="5.7"/></filter>
    <filter id="blur-8" x="-85%" y="-85%" width="270%" height="270%"><feGaussianBlur stdDeviation="8.4"/></filter>
    <filter id="blur-10" x="-95%" y="-95%" width="290%" height="290%"><feGaussianBlur stdDeviation="10.4"/></filter>
    <filter id="blur-14" x="-120%" y="-120%" width="340%" height="340%"><feGaussianBlur stdDeviation="13.8"/></filter><clipPath id="clip-oreo-1l9ckgt"><rect width="64" height="64" rx="32" fill="#ffffff"/></clipPath><radialGradient id="edge-oreo-1l9ckgt" gradientUnits="userSpaceOnUse" cx="32" cy="32" r="32"><stop offset="98.4375%" stop-color="#ffffff"/><stop offset="100%" stop-color="#ffffff" stop-opacity="0"/></radialGradient><mask id="edge-mask-oreo-1l9ckgt" maskUnits="userSpaceOnUse" maskContentUnits="userSpaceOnUse" x="0" y="0" width="64" height="64" style="mask-type:alpha"><rect width="64" height="64" fill="url(#edge-oreo-1l9ckgt)"/></mask></defs>

    <g mask="url(#edge-mask-oreo-1l9ckgt)"><g clip-path="url(#clip-oreo-1l9ckgt)">
    <g transform="translate(32.030 32.030) rotate(-90.000)"><rect x="-37.625" y="-37.625" width="75.250" height="75.250" rx="16.270" fill="#7cb2ff" opacity="1.000"/></g>

    <g transform="translate(32 32) rotate(-90)" opacity="0.42">
      <rect x="-36.425" y="-36.425" width="72.850" height="72.850" rx="15.070" fill="none" stroke="#ffffff" stroke-width="1.400" opacity="0.38" filter="url(#blur-1)"/>
      <rect x="-35.625" y="-35.625" width="71.250" height="71.250" rx="14.270" fill="none" stroke="#88b9ff" stroke-width="2.400" opacity="0.24" filter="url(#blur-3)"/>
      <rect x="-33.625" y="-33.625" width="67.250" height="67.250" rx="12.270" fill="none" stroke="#7cb2ff" stroke-width="4.000" opacity="0.18" filter="url(#blur-5)"/>
    </g>
    <g transform="translate(31.940 14.731) rotate(180.219)"><rect x="-35.556" y="-41.770" width="71.111" height="83.539" rx="33.591" fill="#f8f8f8" opacity="0.917" filter="url(#blur-6)"/></g>
    <g transform="translate(32.003 3.832) rotate(180.056)"><rect x="-29.254" y="-31.918" width="58.507" height="63.836" rx="25.195" fill="#fb4fbc" opacity="0.860" filter="url(#blur-8)"/></g></g></g>
  </svg>
