<svg xmlns="http://www.w3.org/2000/svg" width="64" height="64" viewBox="0 0 64 64" role="img">
    <title>Void avatar</title>
    <defs>
    <filter id="blur-1" x="-40%" y="-40%" width="180%" height="180%"><feGaussianBlur stdDeviation="1.1"/></filter>
    <filter id="blur-3" x="-55%" y="-55%" width="210%" height="210%"><feGaussianBlur stdDeviation="3.2"/></filter>
    <filter id="blur-5" x="-70%" y="-70%" width="240%" height="240%"><feGaussianBlur stdDeviation="5.1"/></filter>
    <filter id="blur-6" x="-75%" y="-75%" width="250%" height="250%"><feGaussianBlur stdDeviation="5.7"/></filter>
    <filter id="blur-8" x="-85%" y="-85%" width="270%" height="270%"><feGaussianBlur stdDeviation="8.4"/></filter>
    <filter id="blur-10" x="-95%" y="-95%" width="290%" height="290%"><feGaussianBlur stdDeviation="10.4"/></filter>
    <filter id="blur-14" x="-120%" y="-120%" width="340%" height="340%"><feGaussianBlur stdDeviation="13.8"/></filter><clipPath id="clip-oreo-1ap8u13"><rect width="64" height="64" rx="32" fill="#ffffff"/></clipPath><radialGradient id="edge-oreo-1ap8u13" gradientUnits="userSpaceOnUse" cx="32" cy="32" r="32"><stop offset="98.4375%" stop-color="#ffffff"/><stop offset="100%" stop-color="#ffffff" stop-opacity="0"/></radialGradient><mask id="edge-mask-oreo-1ap8u13" maskUnits="userSpaceOnUse" maskContentUnits="userSpaceOnUse" x="0" y="0" width="64" height="64" style="mask-type:alpha"><rect width="64" height="64" fill="url(#edge-oreo-1ap8u13)"/></mask></defs>

    <g mask="url(#edge-mask-oreo-1ap8u13)"><g clip-path="url(#clip-oreo-1ap8u13)">
    <g transform="translate(32.000 32.000) rotate(-90.000)"><rect x="-37.590" y="-37.590" width="75.180" height="75.180" rx="16.250" fill="#9d0051" opacity="1.000"/></g>

    <g transform="translate(32 32) rotate(-90)" opacity="0.36">
      <rect x="-36.390" y="-36.390" width="72.780" height="72.780" rx="15.050" fill="none" stroke="#ffffff" stroke-width="1.400" opacity="0.38" filter="url(#blur-1)"/>
      <rect x="-35.590" y="-35.590" width="71.180" height="71.180" rx="14.250" fill="none" stroke="#71abff" stroke-width="2.400" opacity="0.24" filter="url(#blur-3)"/>
      <rect x="-33.590" y="-33.590" width="67.180" height="67.180" rx="12.250" fill="none" stroke="#71abff" stroke-width="4.000" opacity="0.18" filter="url(#blur-5)"/>
    </g>
    <g transform="translate(32.106 31.889) rotate(180.183)"><rect x="-31.926" y="-18.784" width="63.851" height="37.569" rx="10.136" fill="#b7cfff" opacity="0.980" filter="url(#blur-14)"/></g>
    <g transform="translate(32.080 32.027) rotate(180.196)"><rect x="-22.435" y="-9.142" width="44.869" height="18.283" rx="5.078" fill="#ffb0d0" opacity="0.902" filter="url(#blur-5)" style="mix-blend-mode:plus-lighter"/></g></g></g>
  </svg>
