<svg xmlns="http://www.w3.org/2000/svg" width="64" height="64" viewBox="0 0 64 64" role="img">
    <title>Bloom avatar</title>
    <defs>
    <filter id="blur-1" x="-40%" y="-40%" width="180%" height="180%"><feGaussianBlur stdDeviation="1.1"/></filter>
    <filter id="blur-3" x="-55%" y="-55%" width="210%" height="210%"><feGaussianBlur stdDeviation="3.2"/></filter>
    <filter id="blur-5" x="-70%" y="-70%" width="240%" height="240%"><feGaussianBlur stdDeviation="5.1"/></filter>
    <filter id="blur-6" x="-75%" y="-75%" width="250%" height="250%"><feGaussianBlur stdDeviation="5.7"/></filter>
    <filter id="blur-8" x="-85%" y="-85%" width="270%" height="270%"><feGaussianBlur stdDeviation="8.4"/></filter>
    <filter id="blur-10" x="-95%" y="-95%" width="290%" height="290%"><feGaussianBlur stdDeviation="10.4"/></filter>
    <filter id="blur-14" x="-120%" y="-120%" width="340%" height="340%"><feGaussianBlur stdDeviation="13.8"/></filter><clipPath id="clip-oreo-1c8ku74"><rect width="64" height="64" rx="32" fill="#ffffff"/></clipPath><radialGradient id="edge-oreo-1c8ku74" gradientUnits="userSpaceOnUse" cx="32" cy="32" r="32"><stop offset="98.4375%" stop-color="#ffffff"/><stop offset="100%" stop-color="#ffffff" stop-opacity="0"/></radialGradient><mask id="edge-mask-oreo-1c8ku74" maskUnits="userSpaceOnUse" maskContentUnits="userSpaceOnUse" x="0" y="0" width="64" height="64" style="mask-type:alpha"><rect width="64" height="64" fill="url(#edge-oreo-1c8ku74)"/></mask>
      <radialGradient id="hot-oreo-1c8ku74" cx="102%" cy="50%" r="58%">
        <stop offset="0%" stop-color="#e90075" stop-opacity="1"/>
        <stop offset="100%" stop-color="#e90075" stop-opacity="0"/>
      </radialGradient></defs>

    <g mask="url(#edge-mask-oreo-1c8ku74)"><g clip-path="url(#clip-oreo-1c8ku74)">
    <g transform="translate(32.000 32.000) rotate(-90.000)"><rect x="-37.625" y="-37.625" width="75.250" height="75.250" rx="16.270" fill="#ffd9e8" opacity="1.000"/></g>

    <g transform="translate(32 32) rotate(-90)" opacity="0.48">
      <rect x="-36.425" y="-36.425" width="72.850" height="72.850" rx="15.070" fill="none" stroke="#ffffff" stroke-width="1.400" opacity="0.38" filter="url(#blur-1)"/>
      <rect x="-35.625" y="-35.625" width="71.250" height="71.250" rx="14.270" fill="none" stroke="#fee9f5" stroke-width="2.400" opacity="0.24" filter="url(#blur-3)"/>
      <rect x="-33.625" y="-33.625" width="67.250" height="67.250" rx="12.270" fill="none" stroke="#fee9f5" stroke-width="4.000" opacity="0.18" filter="url(#blur-5)"/>
    </g>
    <g transform="translate(65.213 65.082) rotate(44.955)"><rect x="-45.765" y="-45.598" width="91.529" height="91.195" rx="46.023" fill="#ff5ea8" opacity="0.857" filter="url(#blur-3)"/></g>
    <g transform="translate(-1.246 -0.947) rotate(45.185)"><rect x="-45.633" y="-45.487" width="91.266" height="90.975" rx="45.912" fill="#ff5ea8" opacity="0.857" filter="url(#blur-3)"/></g>
    <g transform="translate(62.974 63.425) rotate(-134.913)"><rect x="-37.989" y="-38.265" width="75.977" height="76.529" rx="37.939" fill="url(#hot-oreo-1c8ku74)" opacity="0.901" filter="url(#blur-1)"/></g>
    <g transform="translate(0.727 0.440) rotate(44.855)"><rect x="-38.361" y="-38.222" width="76.723" height="76.444" rx="37.957" fill="url(#hot-oreo-1c8ku74)" opacity="0.897" filter="url(#blur-1)"/></g></g></g>
  </svg>
